<?xml version="1.0" encoding="utf-8"?>
<!-- Generator: Adobe Illustrator 27.8.0, SVG Export Plug-In . SVG Version: 6.00 Build 0)  -->
<svg version="1.1" xmlns="http://www.w3.org/2000/svg" xmlns:xlink="http://www.w3.org/1999/xlink" x="0px" y="0px"
	 viewBox="0 0 800 800" style="enable-background:new 0 0 800 800;" xml:space="preserve">
<style type="text/css">
	.st0{fill:#F8F8F9;}
	.st1{fill:#FDB913;}
	.st2{fill:#231F20;}
	.st3{fill:#FFFFFF;}
</style>
<g id="Layer_1">
</g>
<g id="Layer_2">
	<path class="st2" d="M220,639.8l-0.3-32.8l-14.7,32.8h-20.4v-57.9h17.3l-0.3,35.4l16.6-35.4h13.2l1,35.4l15.2-35.4h22l-31.2,57.9
		H220z"/>
	<path class="st2" d="M292.6,639.8v-7.5h-19.1l-3.9,7.5h-19.9l34.1-57.9h24v57.9H292.6z M292.6,596.5l-11.4,21.3h11.4V596.5z"/>
	<path class="st2" d="M350.4,639.8l-8-18.6h-6.3v18.6h-17.5v-57.9h30.9c13.5,0,20.8,9,20.8,19.9c0,10-5.8,15.3-10.4,17.5l10.5,20.5
		H350.4z M346.8,596.5h-10.7v10.2h10.7c3,0,5.7-1.9,5.7-5.1C352.5,598.4,349.7,596.5,346.8,596.5z"/>
	<path class="st2" d="M389,639.8v-42.6h-15.5v-15.3H422v15.3h-15.5v42.6H389z"/>
	<path class="st2" d="M466.5,639.8v-22.1h-20.8v22.1h-17.5v-57.9h17.5v20.5h20.8v-20.5h17.5v57.9H466.5z"/>
	<path class="st2" d="M522,580.9c17.9,0,31.7,12.2,31.7,30c0,17.8-13.8,30-31.7,30c-17.9,0-31.7-12.2-31.7-30
		C490.3,593.1,504.2,580.9,522,580.9z M522,596.4c-8.4,0-13.9,6.4-13.9,14.5s5.5,14.5,13.9,14.5c8.4,0,13.9-6.4,13.9-14.5
		S530.5,596.4,522,596.4z"/>
	<path class="st2" d="M588.8,580.9c13.5,0,21.5,6.8,25.4,14.2l-14.8,7.6c-1.9-3.6-5.7-6.3-10.7-6.3c-8.4,0-14.1,6.4-14.1,14.5
		s5.6,14.5,14.1,14.5c3.7,0,7.2-1,9.5-2.6v-2.5H587v-14.4h28.2v23.3c-6.4,7.1-15.1,11.7-26.5,11.7c-17.5,0-31.9-11.5-31.9-30
		C556.9,592.3,571.2,580.9,588.8,580.9z"/>
	<g>
		<path class="st2" d="M212.9,688.9l-23.2-31v31h-4.9v-38.4h5.1l22.9,30.3v-30.3h4.9v38.4H212.9z"/>
		<path class="st2" d="M231.3,688.9v-38.4h26v4.3h-21.1v12.4h20.7v4.3h-20.7v13.2h21.1v4.3H231.3z"/>
		<path class="st2" d="M279.4,688.9v-34.1h-12.6v-4.3H297v4.3h-12.6v34.1H279.4z"/>
		<path class="st2" d="M338.3,688.9l-8.8-31l-8.8,31h-5.4l-11.3-38.4h5.5l8.8,32l9.1-32h4.1l9.1,32l8.8-32h5.5l-11.3,38.4H338.3z"/>
		<path class="st2" d="M381.9,649.9c11.7,0,19.7,8.5,19.7,19.9c0,11.3-8,19.9-19.7,19.9c-11.8,0-19.7-8.5-19.7-19.9
			C362.2,658.4,370.1,649.9,381.9,649.9z M381.9,654.1c-8.9,0-14.6,6.6-14.6,15.6c0,8.9,5.7,15.6,14.6,15.6
			c8.9,0,14.6-6.7,14.6-15.6C396.5,660.7,390.8,654.1,381.9,654.1z"/>
		<path class="st2" d="M436.7,688.9l-10.1-15.3h-7.9v15.3h-4.9v-38.4h16c7.3,0,12.4,4.5,12.4,11.6c0,6.9-4.9,10.7-10.3,11.2
			l10.7,15.7H436.7z M429.1,654.8h-10.4v14.7h10.4c4.7,0,7.9-3.1,7.9-7.4C437,657.8,433.8,654.8,429.1,654.8z"/>
		<path class="st2" d="M478.4,688.9l-15.1-17.3l-4,4.4v12.9h-4.9v-38.4h4.9v19.9l17.6-19.9h6.2l-16.6,18.3l18,20.2H478.4z"/>
	</g>
	<circle class="st2" cx="399.6" cy="324.9" r="214.5"/>
	<g>
		<polygon class="st0" points="294.9,427.6 330.7,427.9 364.2,384.8 323.5,400.4 		"/>
		<g>
			<path class="st0" d="M511.4,335l28.8-6.3l8.4-18.7l-11.1-2.7l-29.2-20.1L486,250.7l-9.3,2.7l-9-26.2l-21.4,16.6l2.7-14.9l-38.7-7
				L423,233l-46.5-5.7l17.8,12.6l-47.6,0.5l22.1,11.3l-41.8,9.2l21.8,5.5l-26.2,8.4l-0.8,0l-0.6,0.4l-18.6,6l7.6,1.5l-17.8,12l0-0.1
				l-17.8,11.3l-8.4,18.8l-15.4,7.8l2.7,7.4l19.9-5.5l11.2,11.2l0.8,31.8l-29.6,50.5H282l39-36.6l51-17.9l52.2-26l53.7,12.8
				l10.4,21.6l26.3-12.5l-12.8-22.8l-32.1-21.7l6.1-3L511.4,335z M492.9,278.6l4.2,10.7l-16.2-7.4L492.9,278.6z"/>
			<polygon class="st0" points="422.8,355.6 410.9,362.4 446.8,378.6 456.6,395.5 478.9,384.8 470.5,368.8 			"/>
		</g>
	</g>
</g>
</svg>
